<svg width="30" height="26" viewBox="0 0 30 26" fill="none" xmlns="http://www.w3.org/2000/svg">
<path d="M5.66653 26C5.28876 26 4.94431 25.8835 4.6332 25.6506C4.32209 25.4169 4.11098 25.1111 3.99987 24.7333L0.266535 11.2666C0.155424 10.9555 0.205202 10.6666 0.415868 10.4C0.627424 10.1333 0.91098 9.99996 1.26654 9.99996H7.99987L13.8665 1.26663C13.9776 1.08885 14.1332 0.944404 14.3332 0.833293C14.5332 0.722182 14.7443 0.666626 14.9665 0.666626C15.1888 0.666626 15.3999 0.722182 15.5999 0.833293C15.7999 0.944404 15.9554 1.08885 16.0665 1.26663L21.9332 9.99996H28.7332C29.0888 9.99996 29.3723 10.1333 29.5839 10.4C29.7945 10.6666 29.8443 10.9555 29.7332 11.2666L25.9999 24.7333C25.8888 25.1111 25.6776 25.4169 25.3665 25.6506C25.0554 25.8835 24.711 26 24.3332 26H5.66653ZM6.3332 23.3333H23.6665L26.5999 12.6666H3.39987L6.3332 23.3333ZM14.9999 20.6666C15.7332 20.6666 16.3612 20.4057 16.8839 19.884C17.4056 19.3613 17.6665 18.7333 17.6665 18C17.6665 17.2666 17.4056 16.6386 16.8839 16.116C16.3612 15.5942 15.7332 15.3333 14.9999 15.3333C14.2665 15.3333 13.639 15.5942 13.1172 16.116C12.5945 16.6386 12.3332 17.2666 12.3332 18C12.3332 18.7333 12.5945 19.3613 13.1172 19.884C13.639 20.4057 14.2665 20.6666 14.9999 20.6666ZM11.2332 9.99996H18.7332L14.9665 4.39996L11.2332 9.99996ZM6.3332 23.3333H23.6665H6.3332Z" fill="#5B5856"/>
</svg>
