<svg xmlns="http://www.w3.org/2000/svg" xmlns:xlink="http://www.w3.org/1999/xlink" version="1.1" width="256" height="256" viewBox="0 0 256 256" xml:space="preserve">

<defs>
</defs>
<g style="stroke: none; stroke-width: 0; stroke-dasharray: none; stroke-linecap: butt; stroke-linejoin: miter; stroke-miterlimit: 10; fill: none; fill-rule: nonzero; opacity: 1;" transform="translate(1.4065934065934016 1.4065934065934016) scale(2.81 2.81)" >
	<path d="M 33.797 40.514 H 6.717 C 3.013 40.514 0 37.501 0 33.797 V 6.717 C 0 3.013 3.013 0 6.717 0 h 27.081 c 3.704 0 6.717 3.013 6.717 6.717 v 27.081 C 40.514 37.501 37.501 40.514 33.797 40.514 z M 6.717 2 C 4.116 2 2 4.116 2 6.717 v 27.081 c 0 2.601 2.116 4.717 4.717 4.717 h 27.081 c 2.601 0 4.717 -2.116 4.717 -4.717 V 6.717 C 38.514 4.116 36.398 2 33.797 2 H 6.717 z" style="stroke: none; stroke-width: 1; stroke-dasharray: none; stroke-linecap: butt; stroke-linejoin: miter; stroke-miterlimit: 10; fill: rgb(0,0,0); fill-rule: nonzero; opacity: 1;" transform=" matrix(1 0 0 1 0 0) " stroke-linecap="round" />
	<path d="M 83.283 40.514 h -27.08 c -3.704 0 -6.718 -3.013 -6.718 -6.717 V 6.717 C 49.485 3.013 52.499 0 56.203 0 h 27.08 C 86.987 0 90 3.013 90 6.717 v 27.081 C 90 37.501 86.987 40.514 83.283 40.514 z M 56.203 2 c -2.602 0 -4.718 2.116 -4.718 4.717 v 27.081 c 0 2.601 2.116 4.717 4.718 4.717 h 27.08 c 2.601 0 4.717 -2.116 4.717 -4.717 V 6.717 C 88 4.116 85.884 2 83.283 2 H 56.203 z" style="stroke: none; stroke-width: 1; stroke-dasharray: none; stroke-linecap: butt; stroke-linejoin: miter; stroke-miterlimit: 10; fill: rgb(0,0,0); fill-rule: nonzero; opacity: 1;" transform=" matrix(1 0 0 1 0 0) " stroke-linecap="round" />
	<path d="M 33.797 90 H 6.717 C 3.013 90 0 86.987 0 83.283 v -27.08 c 0 -3.704 3.013 -6.718 6.717 -6.718 h 27.081 c 3.704 0 6.717 3.014 6.717 6.718 v 27.08 C 40.514 86.987 37.501 90 33.797 90 z M 6.717 51.485 C 4.116 51.485 2 53.602 2 56.203 v 27.08 C 2 85.884 4.116 88 6.717 88 h 27.081 c 2.601 0 4.717 -2.116 4.717 -4.717 v -27.08 c 0 -2.602 -2.116 -4.718 -4.717 -4.718 H 6.717 z" style="stroke: none; stroke-width: 1; stroke-dasharray: none; stroke-linecap: butt; stroke-linejoin: miter; stroke-miterlimit: 10; fill: rgb(0,0,0); fill-rule: nonzero; opacity: 1;" transform=" matrix(1 0 0 1 0 0) " stroke-linecap="round" />
	<path d="M 83.283 90 h -27.08 c -3.704 0 -6.718 -3.013 -6.718 -6.717 v -27.08 c 0 -3.704 3.014 -6.718 6.718 -6.718 h 27.08 c 3.704 0 6.717 3.014 6.717 6.718 v 27.08 C 90 86.987 86.987 90 83.283 90 z M 56.203 51.485 c -2.602 0 -4.718 2.116 -4.718 4.718 v 27.08 c 0 2.601 2.116 4.717 4.718 4.717 h 27.08 C 85.884 88 88 85.884 88 83.283 v -27.08 c 0 -2.602 -2.116 -4.718 -4.717 -4.718 H 56.203 z" style="stroke: none; stroke-width: 1; stroke-dasharray: none; stroke-linecap: butt; stroke-linejoin: miter; stroke-miterlimit: 10; fill: rgb(0,0,0); fill-rule: nonzero; opacity: 1;" transform=" matrix(1 0 0 1 0 0) " stroke-linecap="round" />
</g>
</svg>