<svg width="25" height="27" viewBox="0 0 25 27" fill="none" xmlns="http://www.w3.org/2000/svg">
<path d="M3.16667 5.66671H5.83333V7.00004C5.83333 8.46671 7.03333 9.66671 8.5 9.66671H16.5C17.9667 9.66671 19.1667 8.46671 19.1667 7.00004V5.66671H21.8333V12.3334H24.5V5.66671C24.5 4.20004 23.3 3.00004 21.8333 3.00004H16.26C15.7 1.45337 14.2333 0.333374 12.5 0.333374C10.7667 0.333374 9.3 1.45337 8.74 3.00004H3.16667C1.7 3.00004 0.5 4.20004 0.5 5.66671V24.3334C0.5 25.8 1.7 27 3.16667 27H11.1667V24.3334H3.16667V5.66671ZM12.5 3.00004C13.2333 3.00004 13.8333 3.60004 13.8333 4.33337C13.8333 5.06671 13.2333 5.66671 12.5 5.66671C11.7667 5.66671 11.1667 5.06671 11.1667 4.33337C11.1667 3.60004 11.7667 3.00004 12.5 3.00004Z" fill="#999897"/>
</svg>
