<svg width="176" height="44" viewBox="0 0 176 44" fill="none" xmlns="http://www.w3.org/2000/svg">
<path d="M0.107349 43.3069V10.611H8.98376V23.8299H9.43077L19.2651 10.611H29.6102L18.5626 25.1709L29.8657 43.3069H19.2651L11.9213 31.0459L8.98376 34.8775V43.3069H0.107349ZM40.7377 43.3069H31.1588L41.951 10.611H54.0842L64.8764 43.3069H55.2975L48.1453 19.6152H47.8899L40.7377 43.3069ZM38.9496 30.4074H56.9579V37.0487H38.9496V30.4074ZM96.315 10.611V43.3069H88.9073L77.0934 26.1288H76.9018V43.3069H68.0254V10.611H75.5608L87.1832 27.7253H87.4386V10.611H96.315ZM100.514 43.3069V10.611H114.627C117.053 10.611 119.177 11.09 120.997 12.0479C122.817 13.0058 124.232 14.3521 125.243 16.087C126.254 17.8218 126.76 19.8493 126.76 22.1695C126.76 24.511 126.238 26.5386 125.195 28.2521C124.163 29.9657 122.71 31.2854 120.837 32.2114C118.974 33.1373 116.798 33.6003 114.307 33.6003H105.878V26.7035H112.519C113.562 26.7035 114.451 26.5226 115.185 26.1607C115.93 25.7882 116.5 25.2614 116.894 24.5802C117.298 23.8991 117.5 23.0955 117.5 22.1695C117.5 21.2329 117.298 20.4347 116.894 19.7748C116.5 19.1043 115.93 18.5934 115.185 18.2422C114.451 17.8803 113.562 17.6994 112.519 17.6994H109.39V43.3069H100.514ZM134.427 43.3069H124.848L135.64 10.611H147.773L158.566 43.3069H148.987L141.835 19.6152H141.579L134.427 43.3069ZM132.639 30.4074H150.647V37.0487H132.639V30.4074ZM170.591 10.611V43.3069H161.715V10.611H170.591ZM161.14 7.73739C160.054 7.73739 159.134 7.37552 158.378 6.65179C157.622 5.92805 157.245 5.05531 157.245 4.03357C157.245 3.01182 157.622 2.13908 158.378 1.41535C159.134 0.691611 160.054 0.329742 161.14 0.329742C162.194 0.329742 163.093 0.691611 163.838 1.41535C164.594 2.13908 164.971 3.01182 164.971 4.03357C164.971 5.05531 164.594 5.92805 163.838 6.65179C163.093 7.37552 162.194 7.73739 161.14 7.73739ZM171.294 7.73739C170.208 7.73739 169.287 7.37552 168.532 6.65179C167.776 5.92805 167.398 5.05531 167.398 4.03357C167.398 3.01182 167.776 2.13908 168.532 1.41535C169.287 0.691611 170.208 0.329742 171.294 0.329742C172.347 0.329742 173.247 0.691611 173.992 1.41535C174.747 2.13908 175.125 3.01182 175.125 4.03357C175.125 5.05531 174.747 5.92805 173.992 6.65179C173.247 7.37552 172.347 7.73739 171.294 7.73739Z" fill="#FF7E20"/>
</svg>
