<svg width="24" height="27" viewBox="0 0 24 27" fill="none" xmlns="http://www.w3.org/2000/svg">
<path d="M9.5282 1.83069C9.72742 1.3383 10.0691 0.916631 10.5096 0.619719C10.95 0.322807 11.469 0.164185 12.0002 0.164185C12.5314 0.164185 13.0504 0.322807 13.4908 0.619719C13.9313 0.916631 14.273 1.3383 14.4722 1.83069C16.4439 2.37293 18.183 3.54743 19.4226 5.1738C20.6621 6.80017 21.3334 8.78848 21.3335 10.8334V17.096L23.7762 20.76C23.9102 20.9608 23.9871 21.1942 23.9988 21.4353C24.0105 21.6764 23.9566 21.9162 23.8427 22.129C23.7288 22.3419 23.5593 22.5198 23.3522 22.6439C23.1451 22.7679 22.9083 22.8334 22.6669 22.8334H16.6202C16.4597 23.9442 15.9043 24.9599 15.0558 25.6946C14.2073 26.4293 13.1225 26.8337 12.0002 26.8337C10.8779 26.8337 9.79308 26.4293 8.9446 25.6946C8.09612 24.9599 7.54074 23.9442 7.3802 22.8334H1.33353C1.09214 22.8334 0.85527 22.7679 0.648188 22.6439C0.441105 22.5198 0.271581 22.3419 0.157701 22.129C0.0438213 21.9162 -0.010141 21.6764 0.00157046 21.4353C0.0132819 21.1942 0.0902279 20.9608 0.2242 20.76L2.66687 17.096V10.8334C2.66687 6.53469 5.57353 2.91335 9.5282 1.83069ZM10.1149 22.8334C10.2526 23.2236 10.5079 23.5614 10.8457 23.8004C11.1835 24.0394 11.5871 24.1678 12.0009 24.1678C12.4146 24.1678 12.8182 24.0394 13.156 23.8004C13.4938 23.5614 13.7492 23.2236 13.8869 22.8334H10.1135H10.1149ZM12.0002 4.16669C10.2321 4.16669 8.5364 4.86907 7.28615 6.11931C6.03591 7.36955 5.33353 9.06524 5.33353 10.8334V17.5C5.33359 17.7634 5.25565 18.0209 5.10953 18.24L3.82553 20.1667H20.1735L18.8895 18.24C18.7439 18.0207 18.6664 17.7633 18.6669 17.5V10.8334C18.6669 9.06524 17.9645 7.36955 16.7142 6.11931C15.464 4.86907 13.7683 4.16669 12.0002 4.16669Z" fill="#5B5856"/>
</svg>
