<svg width="28" height="28" viewBox="0 0 28 28" fill="none" xmlns="http://www.w3.org/2000/svg">
<path d="M10.3329 27.3333L9.79961 23.0666C9.51072 22.9555 9.23872 22.8222 8.98361 22.6666C8.72761 22.5111 8.47739 22.3444 8.23294 22.1666L4.26628 23.8333L0.599609 17.5L4.03294 14.9C4.01072 14.7444 3.99961 14.5942 3.99961 14.4493V13.5493C3.99961 13.4053 4.01072 13.2555 4.03294 13.1L0.599609 10.5L4.26628 4.16663L8.23294 5.83329C8.47739 5.65551 8.73294 5.48885 8.99961 5.33329C9.26628 5.17774 9.53294 5.0444 9.79961 4.93329L10.3329 0.666626H17.6663L18.1996 4.93329C18.4885 5.0444 18.7609 5.17774 19.0169 5.33329C19.2721 5.48885 19.5218 5.65551 19.7663 5.83329L23.7329 4.16663L27.3996 10.5L23.9663 13.1C23.9885 13.2555 23.9996 13.4053 23.9996 13.5493V14.4493C23.9996 14.5942 23.9774 14.7444 23.9329 14.9L27.3663 17.5L23.6996 23.8333L19.7663 22.1666C19.5218 22.3444 19.2663 22.5111 18.9996 22.6666C18.7329 22.8222 18.4663 22.9555 18.1996 23.0666L17.6663 27.3333H10.3329ZM12.6663 24.6666H15.2996L15.7663 21.1333C16.4552 20.9555 17.0943 20.6942 17.6836 20.3493C18.2721 20.0053 18.8107 19.5888 19.2996 19.1L22.5996 20.4666L23.8996 18.2L21.0329 16.0333C21.1441 15.7222 21.2218 15.3942 21.2663 15.0493C21.3107 14.7053 21.3329 14.3555 21.3329 14C21.3329 13.6444 21.3107 13.2942 21.2663 12.9493C21.2218 12.6053 21.1441 12.2777 21.0329 11.9666L23.8996 9.79996L22.5996 7.53329L19.2996 8.93329C18.8107 8.42218 18.2721 7.99418 17.6836 7.64929C17.0943 7.30529 16.4552 7.0444 15.7663 6.86663L15.3329 3.33329H12.6996L12.2329 6.86663C11.5441 7.0444 10.9054 7.30529 10.3169 7.64929C9.72761 7.99418 9.1885 8.41107 8.69961 8.89996L5.39961 7.53329L4.09961 9.79996L6.96628 11.9333C6.85516 12.2666 6.77739 12.6 6.73294 12.9333C6.6885 13.2666 6.66628 13.6222 6.66628 14C6.66628 14.3555 6.6885 14.7 6.73294 15.0333C6.77739 15.3666 6.85516 15.7 6.96628 16.0333L4.09961 18.2L5.39961 20.4666L8.69961 19.0666C9.1885 19.5777 9.72761 20.0053 10.3169 20.3493C10.9054 20.6942 11.5441 20.9555 12.2329 21.1333L12.6663 24.6666ZM13.9996 19.3333C14.3774 19.3333 14.6943 19.2053 14.9503 18.9493C15.2054 18.6942 15.3329 18.3777 15.3329 18C15.3329 17.6222 15.2054 17.3053 14.9503 17.0493C14.6943 16.7942 14.3774 16.6666 13.9996 16.6666C13.6218 16.6666 13.3054 16.7942 13.0503 17.0493C12.7943 17.3053 12.6663 17.6222 12.6663 18C12.6663 18.3777 12.7943 18.6942 13.0503 18.9493C13.3054 19.2053 13.6218 19.3333 13.9996 19.3333ZM12.6663 15.3333H15.3329V8.66663H12.6663V15.3333Z" fill="#5B5856"/>
</svg>
