<svg width="46" height="46" viewBox="0 0 46 46" fill="none" xmlns="http://www.w3.org/2000/svg">
<path fill-rule="evenodd" clip-rule="evenodd" d="M23 0.5C23.663 0.5 24.2989 0.763392 24.7678 1.23223C25.2366 1.70107 25.5 2.33696 25.5 3V5.675C29.2399 6.21557 32.7046 7.95148 35.3765 10.6235C38.0485 13.2954 39.7844 16.7601 40.325 20.5H43C43.663 20.5 44.2989 20.7634 44.7678 21.2322C45.2366 21.7011 45.5 22.337 45.5 23C45.5 23.663 45.2366 24.2989 44.7678 24.7678C44.2989 25.2366 43.663 25.5 43 25.5H40.325C39.7844 29.2399 38.0485 32.7046 35.3765 35.3765C32.7046 38.0485 29.2399 39.7844 25.5 40.325V43C25.5 43.663 25.2366 44.2989 24.7678 44.7678C24.2989 45.2366 23.663 45.5 23 45.5C22.337 45.5 21.7011 45.2366 21.2322 44.7678C20.7634 44.2989 20.5 43.663 20.5 43V40.325C16.7601 39.7844 13.2954 38.0485 10.6235 35.3765C7.95148 32.7046 6.21557 29.2399 5.675 25.5H3C2.33696 25.5 1.70107 25.2366 1.23223 24.7678C0.763392 24.2989 0.5 23.663 0.5 23C0.5 22.337 0.763392 21.7011 1.23223 21.2322C1.70107 20.7634 2.33696 20.5 3 20.5H5.675C6.21596 16.7603 7.95199 13.2958 10.6239 10.6239C13.2958 7.95199 16.7603 6.21596 20.5 5.675V3C20.5 2.33696 20.7634 1.70107 21.2322 1.23223C21.7011 0.763392 22.337 0.5 23 0.5ZM10.5 23C10.5 19.6848 11.817 16.5054 14.1612 14.1612C16.5054 11.817 19.6848 10.5 23 10.5C26.3152 10.5 29.4946 11.817 31.8388 14.1612C34.183 16.5054 35.5 19.6848 35.5 23C35.5 26.3152 34.183 29.4946 31.8388 31.8388C29.4946 34.183 26.3152 35.5 23 35.5C19.6848 35.5 16.5054 34.183 14.1612 31.8388C11.817 29.4946 10.5 26.3152 10.5 23Z" fill="#FF7E20"/>
</svg>
